<svg width="256" height="256" viewBox="0 0 1254 1254" fill="none" xmlns="http://www.w3.org/2000/svg">
  <defs>
    <linearGradient id="badge" x1="1" y1="0" x2="0" y2="1">
      <stop offset="0" stop-color="#2E89FB"/>
      <stop offset="1" stop-color="#4F5BF5"/>
    </linearGradient>
  </defs>

  <g transform="translate(-10 -18)">
    <rect x="184" y="184" width="905" height="922" rx="54" fill="#FFFFFF" stroke="#D7DEE8" stroke-width="6"/>

    <circle cx="341" cy="420" r="82" fill="#2775FC"/>
    <path d="M303 418 L329 446 L381 390" stroke="#FFFFFF" stroke-width="17" stroke-linecap="round" stroke-linejoin="round"/>
    <rect x="493" y="389" width="384" height="20" rx="10" fill="#405168"/>
    <rect x="495" y="444" width="274" height="14" rx="7" fill="#D4D7DE"/>

    <circle cx="341" cy="645" r="82" fill="#1DBF76"/>
    <path d="M303 643 L329 671 L381 615" stroke="#FFFFFF" stroke-width="17" stroke-linecap="round" stroke-linejoin="round"/>
    <rect x="493" y="614" width="328" height="20" rx="10" fill="#405168"/>
    <rect x="495" y="669" width="210" height="14" rx="7" fill="#D4D7DE"/>

    <circle cx="341" cy="870" r="82" fill="#FEBB38"/>
    <path d="M303 868 L329 896 L381 840" stroke="#FFFFFF" stroke-width="17" stroke-linecap="round" stroke-linejoin="round"/>
    <rect x="493" y="839" width="195" height="20" rx="10" fill="#405168"/>
    <rect x="495" y="894" width="150" height="14" rx="7" fill="#D4D7DE"/>

    <circle cx="958" cy="925" r="233" fill="url(#badge)"/>
    <path d="M876 943 L938 997 L1064 857" stroke="#FFFFFF" stroke-width="42" stroke-linecap="round" stroke-linejoin="round"/>
  </g>
</svg>
